<svg xmlns="http://www.w3.org/2000/svg" viewBox="0 0 30 30" fill="currentColor">
  <path d="M15 3c-.5 0-1 .2-1.4.5-.8.6-1.1 1.5-1.1 2.5 0 .3 0 .6.1.9-1.2.1-2.3.6-3.2 1.4C8.2 9.4 7.5 11 7.5 13c0 2.3.8 4.8 2.2 6.8 1.3 1.9 2.8 3.2 4.3 3.2.8 0 1.4-.3 2-.5.5-.2 1-.4 1.5-.4s1 .2 1.5.4c.6.2 1.2.5 2 .5 1.5 0 3-1.3 4.3-3.2 1-1.4 1.7-3 2-4.5-1.8-.7-3-2.4-3-4.3 0-2 1.3-3.7 3.2-4.3-.8-1.2-2.1-2-3.7-2-.9 0-1.7.2-2.4.5-.6.2-1.1.4-1.6.4-.6 0-1.1-.2-1.7-.4-.7-.3-1.5-.5-2.4-.5-.1-.9-.4-1.7-1-2.2-.4-.3-.9-.5-1.4-.5z"/>
</svg>
